<?xml version="1.0" encoding="utf-8"?>
<!-- Generator: Adobe Illustrator 16.0.3, SVG Export Plug-In . SVG Version: 6.00 Build 0)  -->
<!DOCTYPE svg PUBLIC "-//W3C//DTD SVG 1.1//EN" "http://www.w3.org/Graphics/SVG/1.1/DTD/svg11.dtd">
<svg version="1.1" id="Layer_1" xmlns="http://www.w3.org/2000/svg" xmlns:xlink="http://www.w3.org/1999/xlink" x="0px" y="0px"
	 width="20px" height="20px" viewBox="0 0 20 20" enable-background="new 0 0 20 20" xml:space="preserve">
<circle fill="#F23B3B" cx="10" cy="10" r="10"/>
<g id="jEhl8j_1_">
	<g>
		<g>
			<path fill="#FFFFFF" d="M10.196,16.777c-0.01,0-0.018,0-0.028,0c-0.006-0.006-0.012-0.014-0.016-0.022
				c-1.365-2.36-2.732-4.722-4.093-7.087C5.403,8.526,5.212,7.304,5.564,6.037c0.487-1.758,1.627-2.93,3.394-3.39
				c1.782-0.464,3.362-0.009,4.653,1.309c1.455,1.483,1.759,3.771,0.734,5.581c-1.217,2.156-2.469,4.292-3.705,6.439
				C10.487,16.24,10.345,16.51,10.196,16.777z M10.168,9.628c1.303,0.001,2.379-1.072,2.382-2.377
				c0.002-1.307-1.069-2.38-2.377-2.38c-1.31,0-2.378,1.065-2.381,2.375C7.789,8.549,8.862,9.626,10.168,9.628z"/>
		</g>
	</g>
</g>
</svg>
